<svg width="500" height="500" xmlns="http://www.w3.org/2000/svg">
  <defs>
    <linearGradient id="plantGrad" x1="0%" y1="0%" x2="100%" y2="100%">
      <stop offset="0%" style="stop-color:#43e97b" />
      <stop offset="100%" style="stop-color:#38f9d7" />
    </linearGradient>
  </defs>
  <rect width="100%" height="100%" fill="url(#plantGrad)" />
  <g opacity="0.3" fill="white" transform="translate(250, 350)">
    <ellipse cx="0" cy="0" rx="50" ry="30" />
    <path d="M0 0 Q-30 -40 -50 -80 Q-40 -90 -20 -70 Q-10 -60 0 -40" />
    <path d="M0 0 Q30 -40 50 -80 Q40 -90 20 -70 Q10 -60 0 -40" />
    <path d="M0 0 Q0 -30 -10 -70 Q10 -70 0 -40" />
    <path d="M0 0 Q15 -25 5 -60 Q25 -55 15 -35" />
  </g>
  <text x="50%" y="90%" text-anchor="middle" dy="0.3em" fill="white" font-family="Arial, sans-serif" font-size="32" font-weight="bold" opacity="0.9">
    Plant
  </text>
</svg>