<svg width="180" height="180" viewBox="0 0 180 180" fill="none" xmlns="http://www.w3.org/2000/svg">
  <rect width="180" height="180" rx="40" fill="url(#gradient4)"/>
  <rect x="20" y="20" width="140" height="140" rx="20" fill="rgba(255,255,255,0.1)" stroke="rgba(255,255,255,0.2)" strokeWidth="2"/>
  
  <!-- House/Room Icon -->
  <path d="M55 120V75L90 45L125 75V120H105V90H75V120H55Z" fill="white" stroke="rgba(255,255,255,0.3)" strokeWidth="2"/>
  <circle cx="90" cy="75" r="6" fill="#FF6B35"/>
  <rect x="80" y="100" width="20" height="15" rx="2" fill="rgba(255,255,255,0.8)"/>
  
  <!-- Modern accents -->
  <rect x="115" y="65" width="6" height="6" rx="2" fill="#FF6B35"/>
  <rect x="115" y="105" width="6" height="6" rx="2" fill="#00D4FF"/>
  <rect x="59" y="65" width="6" height="6" rx="2" fill="#00D4FF"/>
  
  <!-- AR/AI indicator dots -->
  <circle cx="65" cy="110" r="3" fill="#00D4FF" opacity="0.8"/>
  <circle cx="115" cy="110" r="3" fill="#FF6B35" opacity="0.8"/>
  
  <!-- Decorative elements -->
  <rect x="40" y="140" width="100" height="2" rx="1" fill="rgba(255,255,255,0.3)"/>
  <text x="90" y="160" fontFamily="Arial, sans-serif" fontSize="14" fontWeight="600" fill="rgba(255,255,255,0.9)" textAnchor="middle">IntraKart</text>
  
  <defs>
    <linearGradient id="gradient4" x1="0%" y1="0%" x2="100%" y2="100%">
      <stop offset="0%" style="stop-color:#6366f1;stop-opacity:1" />
      <stop offset="50%" style="stop-color:#8b5cf6;stop-opacity:1" />
      <stop offset="100%" style="stop-color:#d946ef;stop-opacity:1" />
    </linearGradient>
  </defs>
</svg>